<svg width="135" height="40" viewBox="0 0 135 40" fill="none" xmlns="http://www.w3.org/2000/svg">
<g clip-path="url(#clip0_150_5188)">
<path d="M134.991 8.4438C134.991 8.13757 134.991 7.82841 134.987 7.52218C134.974 6.85138 134.905 6.18058 134.777 5.52145C134.655 4.8594 134.418 4.21777 134.079 3.61697C133.382 2.41536 132.279 1.43541 130.921 0.817112C130.243 0.513795 129.516 0.303806 128.769 0.190062C128.022 0.0792342 127.268 0.0209039 126.512 0.0121543C126.169 0.00632131 125.814 0.000488281 125.472 0.000488281C125.067 0.000488281 124.656 0.000488281 124.248 0.000488281L10.756 0.000488281C10.3447 0.000488281 9.93347 0.000488281 9.5222 0.000488281C9.17673 0.000488281 8.83455 0.00923783 8.48579 0.0121543C7.72904 0.0209039 6.9723 0.0792342 6.22542 0.190062C5.47855 0.300889 4.7547 0.513795 4.08021 0.817112C3.40572 1.12335 2.79046 1.51999 2.25416 1.99538C1.71456 2.46786 1.2671 3.01616 0.924917 3.61697C0.582737 4.21485 0.345842 4.85649 0.220815 5.52145C0.0957876 6.1835 0.0266935 6.85138 0.0201131 7.52218C0.0102425 7.82841 0.0069523 8.13757 0.00366211 8.4438V31.5601C0.0102425 31.8692 0.0102425 32.1726 0.0201131 32.4817C0.0299837 33.1525 0.0957876 33.8233 0.220815 34.4824C0.345842 35.1445 0.582737 35.789 0.924917 36.3869C1.2671 36.9848 1.71456 37.5302 2.25416 38.0027C2.78717 38.481 3.40572 38.8776 4.08021 39.1809C4.7547 39.4843 5.47855 39.6972 6.22542 39.8109C6.9723 39.9188 7.72904 39.9801 8.48579 39.9888C8.83455 39.9947 9.17673 40.0005 9.5222 40.0005C9.93347 40.0005 10.3447 40.0005 10.756 40.0005H124.248C124.653 40.0005 125.064 40.0005 125.472 40.0005C125.814 40.0005 126.169 39.9976 126.512 39.9888C127.268 39.9801 128.022 39.9217 128.769 39.8109C129.519 39.6972 130.243 39.4843 130.921 39.1809C131.595 38.8776 132.21 38.4781 132.747 38.0027C133.283 37.5302 133.734 36.9848 134.079 36.3869C134.421 35.7861 134.655 35.1445 134.777 34.4824C134.902 33.8204 134.974 33.1525 134.987 32.4817C134.991 32.1696 134.991 31.8692 134.991 31.5601C135 31.1955 135 30.8368 135 30.4664V9.53749C135 9.17001 135 8.80836 134.991 8.44672V8.4438ZM134.017 30.4664C134.017 30.831 134.017 31.1839 134.007 31.5426C134.007 31.8692 134.007 32.1667 134.003 32.473C133.99 33.0942 133.924 33.7125 133.809 34.3279C133.704 34.9083 133.5 35.4711 133.201 35.999C132.905 36.5123 132.516 36.979 132.056 37.3844C131.595 37.7985 131.062 38.1427 130.476 38.4081C129.884 38.6735 129.249 38.8601 128.594 38.9593C127.897 39.0614 127.193 39.1139 126.485 39.1226C126.156 39.1285 125.808 39.1343 125.472 39.1343H124.248H9.52549C9.18331 39.1343 8.84771 39.1314 8.50553 39.1226C7.79814 39.1139 7.09403 39.0614 6.39651 38.9593C5.74505 38.8601 5.11663 38.6764 4.52768 38.411C3.94532 38.1485 3.4123 37.8073 2.95168 37.3931C2.48447 36.9877 2.09623 36.5153 1.80011 35.9961C1.5007 35.4741 1.29342 34.917 1.18813 34.3395C1.07298 33.7183 1.01046 33.0942 1.00059 32.4642C0.994011 32.2542 0.98414 31.5513 0.98414 31.5513V8.4438C0.98414 8.4438 0.994011 7.75258 1.00059 7.54843C1.01046 6.92138 1.07298 6.29433 1.18813 5.67603C1.29671 5.09856 1.50399 4.53567 1.80011 4.01361C2.09294 3.49447 2.48118 3.02491 2.9451 2.6166C3.40901 2.20537 3.94203 1.85831 4.52768 1.59291C5.11663 1.33042 5.74505 1.14668 6.39322 1.04752C7.09403 0.945439 7.80143 0.890025 8.50882 0.884192L9.52549 0.872526H125.465L126.495 0.884192C127.196 0.892942 127.9 0.945439 128.591 1.04752C129.246 1.14668 129.881 1.33042 130.476 1.59582C131.648 2.12954 132.599 2.97825 133.201 4.01653C133.493 4.53567 133.697 5.09272 133.806 5.66436C133.924 6.28849 133.987 6.91846 134.003 7.55135C134.007 7.83425 134.007 8.13756 134.007 8.44088C134.017 8.81711 134.017 9.17293 134.017 9.53166V30.4606V30.4664Z" fill="white"/>
<path d="M27.945 20.3022C27.968 18.6048 28.9715 17.0386 30.6035 16.1491C29.5703 14.8395 27.9022 14.0404 26.0992 13.9908C24.204 13.8158 22.3681 14.997 21.4041 14.997C20.4401 14.997 18.9331 14.0083 17.3341 14.0375C15.2284 14.0987 13.3135 15.1341 12.287 16.7644C10.1056 20.1126 11.7342 25.0328 13.8235 27.7422C14.8698 29.0663 16.0904 30.5479 17.6895 30.4954C19.2556 30.4371 19.8379 29.6117 21.7265 29.6117C23.6151 29.6117 24.1448 30.4954 25.7768 30.4633C27.4548 30.44 28.5142 29.1334 29.5243 27.7947C30.2745 26.8497 30.8535 25.8056 31.2385 24.7032C29.2446 23.9566 27.9483 22.2242 27.945 20.3051V20.3022Z" fill="white"/>
<path d="M24.8623 12.2118C25.777 11.2377 26.2277 9.98647 26.1191 8.7207C24.7208 8.85195 23.4278 9.444 22.4999 10.3802C21.5853 11.3047 21.118 12.5151 21.2102 13.7429C22.6282 13.7546 23.9739 13.1917 24.8623 12.2118Z" fill="white"/>
<path d="M47.7253 27.1417H42.3853L41.1022 30.4986H38.8418L43.8988 18.0801H46.248L51.3051 30.4986H49.0052L47.7253 27.1417ZM42.9381 25.593H47.1726L45.0866 20.145H45.0274L42.9381 25.593Z" fill="white"/>
<path d="M62.2283 25.9722C62.2283 28.7867 60.5306 30.592 57.9642 30.592C56.6383 30.6532 55.3913 30.0379 54.7497 29.0083H54.7003V33.4939H52.6045V21.4458H54.6345V22.9507H54.674C55.3419 21.927 56.5922 21.3116 57.9247 21.3496C60.5174 21.3496 62.225 23.1665 62.225 25.9722H62.2283ZM60.0732 25.9722C60.0732 24.1377 59.0039 22.9332 57.3753 22.9332C55.7466 22.9332 54.6971 24.164 54.6971 25.9722C54.6971 27.7805 55.773 29.0171 57.3753 29.0171C58.9776 29.0171 60.0732 27.8213 60.0732 25.9722Z" fill="white"/>
<path d="M73.472 25.9722C73.472 28.7867 71.7742 30.592 69.2079 30.592C67.8819 30.6532 66.6349 30.0379 65.9934 29.0083H65.944V33.4939H63.8481V21.4458H65.8782V22.9507H65.9177C66.5856 21.927 67.8359 21.3116 69.1684 21.3496C71.7611 21.3496 73.4687 23.1665 73.4687 25.9722H73.472ZM71.3169 25.9722C71.3169 24.1377 70.2476 22.9332 68.6189 22.9332C66.9903 22.9332 65.9407 24.164 65.9407 25.9722C65.9407 27.7805 67.0166 29.0171 68.6189 29.0171C70.2213 29.0171 71.3169 27.8213 71.3169 25.9722Z" fill="white"/>
<path d="M80.9009 27.0362C81.0556 28.267 82.4046 29.0749 84.2504 29.0749C86.0962 29.0749 87.2905 28.267 87.2905 27.1558C87.2905 26.1934 86.5239 25.6159 84.7077 25.2192L82.8915 24.8313C80.3186 24.2801 79.1242 23.2127 79.1242 21.4832C79.1242 19.3396 81.23 17.8696 84.2207 17.8696C87.2115 17.8696 89.212 19.3425 89.2778 21.4832H87.1622C87.0339 20.2437 85.879 19.497 84.1911 19.497C82.5033 19.497 81.3451 20.2553 81.3451 21.3549C81.3451 22.2327 82.0821 22.749 83.8884 23.1456L85.4315 23.481C88.3072 24.0847 89.5015 25.1084 89.5015 26.9225C89.5015 29.247 87.4122 30.7023 84.0924 30.7023C80.9865 30.7023 78.8873 29.282 78.7524 27.0362H80.8976H80.9009Z" fill="white"/>
<path d="M94.0281 19.302V21.4456H95.9693V22.9185H94.0281V27.9086C94.0281 28.6844 94.4163 29.0461 95.2718 29.0461C95.5021 29.0432 95.7324 29.0286 95.9627 29.0023V30.4664C95.5778 30.5306 95.1895 30.5597 94.798 30.551C92.7285 30.551 91.9224 29.8627 91.9224 28.107V22.9185H90.4385V21.4456H91.9224V19.302H94.0281Z" fill="white"/>
<path d="M97.0947 25.9722C97.0947 23.1228 98.9866 21.332 101.938 21.332C104.889 21.332 106.784 23.1228 106.784 25.9722C106.784 28.8216 104.909 30.6124 101.938 30.6124C98.9668 30.6124 97.0947 28.8304 97.0947 25.9722ZM104.649 25.9722C104.649 24.0181 103.639 22.8661 101.941 22.8661C100.243 22.8661 99.2334 24.0269 99.2334 25.9722C99.2334 27.9175 100.243 29.0783 101.941 29.0783C103.639 29.0783 104.649 27.935 104.649 25.9722Z" fill="white"/>
<path d="M108.516 21.443H110.516V22.9829H110.565C110.845 21.9913 111.868 21.3088 113.023 21.3467C113.263 21.3467 113.507 21.3701 113.74 21.4167V23.155C113.434 23.0733 113.119 23.0354 112.799 23.0412C111.635 23.0004 110.651 23.8024 110.602 24.8378C110.598 24.934 110.602 25.0303 110.615 25.1265V30.4958H108.519V21.443H108.516Z" fill="white"/>
<path d="M123.402 27.8388C123.119 29.4837 121.313 30.6095 119.003 30.6095C116.032 30.6095 114.187 28.845 114.187 26.013C114.187 23.1811 116.042 21.332 118.915 21.332C121.787 21.332 123.518 23.0528 123.518 25.7972V26.433H116.302V26.5468C116.174 27.8446 117.253 28.9879 118.717 29.1045C118.829 29.1133 118.938 29.1162 119.049 29.1133C120.066 29.1979 121.027 28.6787 121.409 27.8388H123.399H123.402ZM116.315 25.1352H121.422C121.497 23.9336 120.461 22.9069 119.105 22.8399C119.043 22.837 118.98 22.837 118.915 22.8399C117.487 22.8311 116.322 23.8519 116.312 25.1177C116.312 25.1235 116.312 25.1293 116.312 25.1381L116.315 25.1352Z" fill="white"/>
<path d="M39.9688 11.7156C39.9688 9.77906 41.1302 8.5862 43.0023 8.5862C44.4006 8.52496 45.618 9.42324 45.8023 10.654H44.7626C44.5816 9.9278 43.8413 9.42033 43.0056 9.44949C41.7981 9.44949 41.0414 10.3215 41.0414 11.7156C41.0414 13.1097 41.7981 13.9788 43.0089 13.9788C43.815 14.0313 44.552 13.5705 44.7626 12.8793H45.8023C45.5917 14.0809 44.3743 14.9355 43.0056 14.8421C41.1335 14.8421 39.9688 13.6464 39.9688 11.7156Z" fill="white"/>
<path d="M46.944 12.4452C46.819 11.2727 47.7863 10.2315 49.1089 10.1178C50.4316 10.007 51.6062 10.8644 51.7345 12.0369C51.7477 12.171 51.7477 12.3081 51.7345 12.4423C51.8628 13.6147 50.8955 14.6588 49.5728 14.7726C48.2502 14.8863 47.0723 14.0288 46.944 12.8564C46.9275 12.7193 46.9275 12.5793 46.944 12.4423V12.4452ZM50.7014 12.4452C50.7014 11.4681 50.2079 10.8994 49.3392 10.8994C48.4706 10.8994 47.9771 11.4711 47.9771 12.4452C47.9771 13.4193 48.4673 13.9968 49.3392 13.9968C50.2079 13.9968 50.7014 13.4251 50.7014 12.4452Z" fill="white"/>
<path d="M53.0811 10.196H54.0451V10.9105H54.1208C54.3807 10.3826 54.9894 10.0618 55.6375 10.1085C56.5489 10.0472 57.3419 10.6539 57.4077 11.4588C57.4175 11.5667 57.411 11.6747 57.3945 11.7826V14.6991H56.391V12.0071C56.391 11.2838 56.0356 10.9222 55.2954 10.9222C54.6538 10.8959 54.1076 11.3363 54.078 11.9051C54.078 11.9576 54.078 12.0101 54.0846 12.0626V14.6962H53.0811V10.1931V10.196Z" fill="white"/>
<path d="M60.8024 10.1084C61.9441 10.1084 62.6909 10.5809 62.7897 11.3742H61.8289C61.7368 11.0446 61.3716 10.8317 60.8024 10.8317C60.2332 10.8317 59.8186 11.0679 59.8186 11.4179C59.8186 11.6862 60.0752 11.8554 60.6247 11.9691L61.467 12.1412C62.4343 12.3395 62.8851 12.707 62.8851 13.3691C62.8851 14.2178 61.9934 14.7836 60.7793 14.7836C59.5653 14.7836 58.7822 14.2994 58.6934 13.5032H59.6969C59.8745 13.894 60.3319 14.1274 60.8024 14.0661C61.4275 14.0661 61.8717 13.8182 61.8717 13.4595C61.8717 13.1912 61.6348 13.0162 61.1248 12.9083L60.2398 12.7274C59.2724 12.5262 58.825 12.1412 58.825 11.4704C58.825 10.6713 59.6508 10.1113 60.7991 10.1113L60.8024 10.1084Z" fill="white"/>
<path d="M64.1514 9.44352L65.3227 8.02026H66.4973L65.1878 9.44352H64.1514ZM64.2567 10.196H65.2536V14.6991H64.2567V10.196Z" fill="white"/>
<path d="M66.8169 15.1479H67.8435C67.929 15.4746 68.3534 15.6846 69.0279 15.6846C69.8636 15.6846 70.3572 15.3317 70.3572 14.7367V13.8734H70.2815C69.9623 14.3663 69.3537 14.6579 68.7154 14.6288C67.419 14.6288 66.6162 13.7392 66.6162 12.3918C66.6162 11.0444 67.4256 10.1169 68.7252 10.1169C69.3833 10.0965 69.9985 10.4027 70.321 10.9102H70.3999V10.1898H71.3607V14.7309C71.3607 15.7604 70.4493 16.4137 69.0148 16.4137C67.7447 16.4137 66.9255 15.9091 66.8169 15.145V15.1479ZM70.3736 12.3889C70.3736 11.4906 69.8505 10.9161 68.995 10.9161C68.1396 10.9161 67.646 11.4906 67.646 12.3889C67.646 13.2872 68.1297 13.8617 68.995 13.8617C69.8538 13.8617 70.3736 13.2901 70.3736 12.3889Z" fill="white"/>
<path d="M77.2408 14.6994H76.2734V13.9848H76.1945C75.9313 14.5186 75.3127 14.8394 74.6612 14.7869C73.7532 14.8452 72.9635 14.2386 72.8977 13.4307C72.8878 13.3257 72.8944 13.2236 72.9109 13.1186V10.1963H73.9144V12.8882C73.9144 13.6144 74.2434 13.9644 74.9804 13.9644C75.6154 14.0169 76.178 13.6057 76.2373 13.0428C76.2438 12.9728 76.2438 12.8999 76.2373 12.8299V10.1963H77.2408V14.6994Z" fill="white"/>
<path d="M83.1328 13.4827C82.8531 14.3314 81.9253 14.8797 80.9316 14.7863C79.6583 14.8155 78.5989 13.926 78.5627 12.7944C78.5594 12.6835 78.566 12.5727 78.5824 12.4619C78.4113 11.3244 79.3096 10.2803 80.5927 10.1287C80.7013 10.117 80.8132 10.1082 80.925 10.1112C82.3398 10.1112 83.192 10.9686 83.192 12.3802V12.6894H79.6057V12.7389C79.5432 13.3952 80.0926 13.9697 80.8296 14.0251C80.8724 14.028 80.9152 14.031 80.9579 14.028C81.4482 14.0805 81.9253 13.8647 82.1654 13.4827H83.1295H83.1328ZM79.6057 12.0302H82.172C82.2214 11.4323 81.7147 10.9103 81.0402 10.8665C81.0007 10.8665 80.9612 10.8636 80.9217 10.8665C80.2045 10.8578 79.6155 11.3682 79.6057 12.004C79.6057 12.0127 79.6057 12.0244 79.6057 12.0331V12.0302Z" fill="white"/>
<path d="M84.5835 8.43726H85.587V14.699H84.5835V8.43726Z" fill="white"/>
<path d="M86.9826 12.4444C86.8575 11.272 87.8248 10.2308 89.1475 10.117C90.4702 10.0033 91.6448 10.8637 91.7731 12.0361C91.7862 12.1703 91.7862 12.3073 91.7731 12.4415C91.9014 13.6139 90.9341 14.658 89.6114 14.7718C88.2888 14.8855 87.1109 14.0281 86.9826 12.8556C86.9661 12.7186 86.9661 12.5786 86.9826 12.4415V12.4444ZM90.7432 12.4444C90.7432 11.4674 90.2497 10.8987 89.3811 10.8987C88.5125 10.8987 88.019 11.4703 88.019 12.4444C88.019 13.4185 88.5092 13.996 89.3811 13.996C90.2497 13.996 90.7432 13.4244 90.7432 12.4444Z" fill="white"/>
<path d="M100.169 13.4827C99.8897 14.3314 98.9619 14.8797 97.9682 14.7863C96.6949 14.8155 95.6355 13.926 95.5993 12.7944C95.596 12.6835 95.6026 12.5727 95.619 12.4619C95.4479 11.3244 96.3462 10.2803 97.6294 10.1287C97.7379 10.117 97.8498 10.1082 97.9617 10.1112C99.3764 10.1112 100.229 10.9686 100.229 12.3802V12.6894H96.6423V12.7389C96.5798 13.3952 97.1292 13.9697 97.8662 14.0251C97.909 14.028 97.9518 14.031 97.9946 14.028C98.4848 14.0805 98.9619 13.8647 99.2021 13.4827H100.166H100.169ZM96.6423 12.0302H99.2086C99.258 11.4323 98.7513 10.9103 98.0768 10.8665C98.0373 10.8665 97.9979 10.8636 97.9584 10.8665C97.2411 10.8578 96.6522 11.3682 96.6423 12.004C96.6423 12.0127 96.6423 12.0244 96.6423 12.0331V12.0302Z" fill="white"/>
<path d="M101.578 10.196H102.542V10.9105H102.617C102.877 10.3826 103.486 10.0618 104.134 10.1085C105.045 10.0472 105.838 10.6539 105.904 11.4588C105.914 11.5667 105.908 11.6747 105.891 11.7826V14.6991H104.888V12.0071C104.888 11.2838 104.532 10.9222 103.792 10.9222C103.15 10.8959 102.604 11.3363 102.575 11.9051C102.575 11.9576 102.575 12.0101 102.581 12.0626V14.6962H101.578V10.1931V10.196Z" fill="white"/>
<path d="M114.495 13.4827C114.215 14.3314 113.288 14.8797 112.294 14.7863C111.021 14.8155 109.961 13.926 109.925 12.7944C109.922 12.6835 109.928 12.5727 109.945 12.4619C109.774 11.3244 110.672 10.2803 111.955 10.1287C112.064 10.117 112.175 10.1082 112.287 10.1112C113.702 10.1112 114.554 10.9686 114.554 12.3802V12.6894H110.968V12.7389C110.905 13.3952 111.455 13.9697 112.192 14.0251C112.235 14.028 112.277 14.031 112.32 14.028C112.81 14.0805 113.288 13.8647 113.528 13.4827H114.492H114.495ZM110.968 12.0302H113.534C113.584 11.4323 113.077 10.9103 112.402 10.8665C112.363 10.8665 112.324 10.8636 112.284 10.8665C111.567 10.8578 110.978 11.3682 110.968 12.004C110.968 12.0127 110.968 12.0244 110.968 12.0331V12.0302Z" fill="white"/>
<path d="M115.946 8.43726H116.949V14.699H115.946V8.43726Z" fill="white"/>
</g>
<defs>
<clipPath id="clip0_150_5188">
<rect width="135" height="40" fill="white"/>
</clipPath>
</defs>
</svg>
