<svg width="171" height="51" viewBox="0 0 171 51" fill="none" xmlns="http://www.w3.org/2000/svg">
<g clip-path="url(#clip0_10_4633)">
<path d="M164.204 1.18031C167.125 1.18031 169.5 3.56708 169.5 6.50066V44.4968C169.5 47.4304 167.125 49.8171 164.204 49.8171H6.60812C3.68804 49.8171 1.31225 47.4304 1.31225 44.4968V6.50066C1.31225 3.56708 3.68804 1.18031 6.60812 1.18031H164.204ZM164.204 0.167969H6.60812C3.14006 0.167969 0.304565 3.01657 0.304565 6.50066V44.4968C0.304565 47.9809 3.14006 50.8295 6.60812 50.8295H164.204C167.673 50.8295 170.508 47.9809 170.508 44.4968V6.50066C170.508 3.01657 167.673 0.167969 164.204 0.167969Z" fill="white"/>
<path d="M86.2079 27.7193C83.2437 27.7193 80.8238 29.9841 80.8238 33.1061C80.8238 36.2281 83.24 38.493 86.2079 38.493C89.1758 38.493 91.5921 36.2059 91.5921 33.1061C91.5921 30.0063 89.1758 27.7193 86.2079 27.7193ZM86.2079 36.3685C84.5824 36.3685 83.1812 35.02 83.1812 33.1024C83.1812 31.1849 84.5824 29.8363 86.2079 29.8363C87.8335 29.8363 89.2347 31.1627 89.2347 33.1024C89.2347 35.0421 87.8335 36.3685 86.2079 36.3685ZM74.4651 27.7193C71.5009 27.7193 69.0809 29.9841 69.0809 33.1061C69.0809 36.2281 71.4972 38.493 74.4651 38.493C77.433 38.493 79.8492 36.2059 79.8492 33.1061C79.8492 30.0063 77.433 27.7193 74.4651 27.7193ZM74.4651 36.3685C72.8395 36.3685 71.4383 35.02 71.4383 33.1024C71.4383 31.1849 72.8395 29.8363 74.4651 29.8363C76.0906 29.8363 77.4918 31.1627 77.4918 33.1024C77.4918 35.0421 76.0906 36.3685 74.4651 36.3685ZM60.4972 29.3708V31.6578H65.9402C65.7784 32.9435 65.3518 33.882 64.7008 34.5359C63.9101 35.3303 62.6707 36.2096 60.4972 36.2096C57.1469 36.2096 54.5247 33.494 54.5247 30.1282C54.5247 26.7623 57.1432 24.0467 60.4972 24.0467C62.3066 24.0467 63.6269 24.7598 64.6015 25.6798L66.205 24.0689C64.8443 22.7647 63.0348 21.7634 60.4972 21.7634C55.9075 21.7634 52.0459 25.5172 52.0459 30.1282C52.0459 34.7392 55.9038 38.493 60.4972 38.493C62.976 38.493 64.8443 37.6764 66.308 36.1468C67.8121 34.6357 68.2792 32.515 68.2792 30.8006C68.2792 30.2686 68.2388 29.7809 68.1579 29.3708H60.5009H60.4972ZM117.619 31.1479C117.174 29.9435 115.81 27.7193 113.029 27.7193C110.249 27.7193 107.973 29.9028 107.973 33.1061C107.973 36.1247 110.249 38.493 113.294 38.493C115.751 38.493 117.174 36.9818 117.763 36.1062L115.935 34.8832C115.324 35.7811 114.493 36.3722 113.294 36.3722C112.095 36.3722 111.242 35.8217 110.694 34.7392L117.865 31.7612L117.623 31.1479H117.619ZM110.308 32.9435C110.245 30.8634 111.911 29.7994 113.11 29.7994C114.044 29.7994 114.835 30.2686 115.1 30.941L110.308 32.9398V32.9435ZM104.479 38.1641H106.836V22.3287H104.479V38.1641ZM100.621 28.9237H100.54C100.01 28.2919 98.9953 27.7193 97.7154 27.7193C95.0344 27.7193 92.5777 30.0876 92.5777 33.1283C92.5777 36.169 95.0344 38.4967 97.7154 38.4967C98.9953 38.4967 100.01 37.924 100.54 37.2737H100.621V38.0496C100.621 40.1112 99.5249 41.2122 97.7559 41.2122C96.3142 41.2122 95.4206 40.1703 95.0528 39.2947L93.0006 40.1519C93.5891 41.5817 95.1521 43.3367 97.7522 43.3367C100.514 43.3367 102.849 41.7036 102.849 37.7245V28.0518H100.613V28.9311L100.621 28.9237ZM97.9177 36.3685C96.2922 36.3685 94.9314 35.0015 94.9314 33.1246C94.9314 31.2477 96.2922 29.84 97.9177 29.84C99.5432 29.84 100.783 31.2292 100.783 33.1246C100.783 35.02 99.5249 36.3685 97.9177 36.3685ZM128.656 22.3324H123.018V38.1678H125.372V32.1677H128.656C131.263 32.1677 133.827 30.2723 133.827 27.25C133.827 24.2278 131.263 22.3324 128.656 22.3324ZM128.718 29.9619H125.372V24.5344H128.718C130.476 24.5344 131.477 25.9975 131.477 27.25C131.477 28.5025 130.476 29.9656 128.718 29.9656V29.9619ZM143.256 27.6897C141.553 27.6897 139.788 28.4434 139.06 30.1134L141.149 30.9891C141.594 30.1134 142.425 29.8289 143.297 29.8289C144.514 29.8289 145.75 30.5605 145.772 31.8647V32.0273C145.345 31.7834 144.433 31.4176 143.319 31.4176C141.068 31.4176 138.777 32.6591 138.777 34.983C138.777 37.1001 140.623 38.4671 142.69 38.4671C144.271 38.4671 145.143 37.754 145.691 36.919H145.772V38.142H148.045V32.0716C148.045 29.2599 145.956 27.6934 143.26 27.6934L143.256 27.6897ZM142.973 36.3685C142.201 36.3685 141.127 35.9806 141.127 35.0236C141.127 33.8007 142.466 33.3315 143.62 33.3315C144.654 33.3315 145.143 33.5569 145.768 33.8598C145.584 35.3266 144.33 36.3648 142.969 36.3648L142.973 36.3685ZM156.316 28.037L153.62 34.9017H153.539L150.74 28.037H148.206L152.403 37.6321L150.008 42.9709H152.462L158.931 28.0407H156.316V28.037ZM135.125 38.1641H137.479V22.3287H135.125V38.1641Z" fill="white"/>
<path d="M12.9999 10.55C12.9079 10.8198 12.8564 11.1301 12.8564 11.4848V39.472C12.8564 39.8341 12.9116 40.1482 13.0072 40.4216L27.8724 25.6724L12.9999 10.55Z" fill="#70C8F2"/>
<path d="M40.1155 23.9468L34.6762 20.8396L29.7922 25.687L34.3342 30.3091L40.1155 27.0097C40.8547 26.5848 41.2629 26.0417 41.2629 25.4801C41.2629 24.9185 40.8547 24.3717 40.1155 23.9505V23.9468Z" fill="url(#paint0_linear_10_4633)"/>
<path d="M13.9782 41.3747C14.4232 41.4782 14.9638 41.3673 15.5485 41.0311L33.1095 31.0074L28.8213 26.6477L13.9745 41.3747H13.9782Z" fill="url(#paint1_linear_10_4633)"/>
<path d="M33.4479 20.1414L15.5486 9.92561C14.9565 9.5857 14.4085 9.47855 13.9635 9.58939L28.8361 24.7191L33.4479 20.1414Z" fill="url(#paint2_linear_10_4633)"/>
<path d="M52.3475 16.6351V9.03516H54.6608C55.823 9.03516 56.7534 9.38615 57.4522 10.0918C58.1509 10.7938 58.4966 11.7101 58.4966 12.837C58.4966 13.9639 58.1473 14.8765 57.4522 15.5821C56.7534 16.2878 55.823 16.6388 54.6608 16.6388H52.3475V16.6351ZM53.3221 15.7004H54.6645C55.5361 15.7004 56.2275 15.4491 56.7387 14.9467C57.2499 14.4442 57.5037 13.7385 57.5037 12.8333C57.5037 11.9281 57.2499 11.2335 56.7387 10.7273C56.2275 10.2211 55.5361 9.96991 54.6645 9.96991H53.3221V15.7004Z" fill="white"/>
<path d="M59.8611 16.6351V9.03516H60.832V16.6351H59.8611Z" fill="white"/>
<path d="M64.7009 16.8012C64.1529 16.8012 63.616 16.6202 63.0901 16.2618C62.5641 15.8997 62.2221 15.3936 62.0603 14.7433L62.9466 14.3812C63.0533 14.7987 63.2666 15.1497 63.5939 15.4379C63.9212 15.7261 64.289 15.8665 64.6972 15.8665C65.1054 15.8665 65.4806 15.7556 65.7821 15.534C66.08 15.3123 66.2308 15.0093 66.2308 14.6251C66.2308 14.2002 66.0837 13.875 65.7821 13.6423C65.4842 13.4132 65.0098 13.1989 64.3625 12.9994C63.6932 12.7888 63.1857 12.5117 62.84 12.1755C62.4943 11.8393 62.3214 11.4107 62.3214 10.886C62.3214 10.3614 62.5384 9.86631 62.965 9.46359C63.3953 9.06087 63.9543 8.85767 64.6457 8.85767C65.2856 8.85767 65.8079 9.02023 66.2087 9.34167C66.6096 9.66311 66.8707 10.0141 66.9921 10.3983L66.1058 10.7678C66.0432 10.5277 65.8851 10.306 65.635 10.0991C65.3849 9.89587 65.0613 9.79242 64.6678 9.79242C64.2963 9.79242 63.9764 9.89587 63.7116 10.1065C63.4468 10.3171 63.3144 10.5757 63.3144 10.886C63.3144 11.1705 63.4358 11.407 63.6785 11.6028C63.9212 11.7986 64.278 11.9723 64.7524 12.1275C65.1238 12.2494 65.4364 12.3639 65.6865 12.4785C65.9366 12.5893 66.1903 12.7408 66.4478 12.9292C66.7052 13.1176 66.9001 13.3504 67.0289 13.6312C67.1576 13.912 67.2238 14.2334 67.2238 14.6029C67.2238 14.9724 67.1502 15.3012 66.9958 15.5894C66.845 15.8813 66.6427 16.1103 66.3926 16.2803C66.1425 16.4502 65.8741 16.5796 65.5835 16.6682C65.293 16.7569 64.9988 16.8012 64.6972 16.8012H64.7009Z" fill="white"/>
<path d="M69.5922 16.6351H68.6213V9.03516H71.1994C71.8393 9.03516 72.3946 9.24945 72.8617 9.67803C73.3325 10.1066 73.5642 10.646 73.5642 11.2963C73.5642 11.9466 73.3288 12.486 72.8617 12.9146C72.3946 13.3432 71.8393 13.5574 71.1994 13.5574H69.5922V16.6351ZM69.5922 12.6227H71.2215C71.6297 12.6227 71.957 12.486 72.2034 12.2089C72.4498 11.9318 72.5712 11.6288 72.5712 11.2963C72.5712 10.9638 72.4498 10.6608 72.2034 10.3837C71.957 10.1066 71.6297 9.96991 71.2215 9.96991H69.5922V12.6227Z" fill="white"/>
<path d="M80.9746 15.6522C80.2317 16.4207 79.305 16.8049 78.2016 16.8049C77.0983 16.8049 76.1716 16.4207 75.4287 15.6522C74.6858 14.8837 74.3143 13.9452 74.3143 12.8331C74.3143 11.721 74.6858 10.7826 75.4287 10.0141C76.1716 9.24557 77.0947 8.86133 78.2016 8.86133C79.3086 8.86133 80.2244 9.24557 80.9709 10.0178C81.7175 10.79 82.089 11.7247 82.089 12.8294C82.089 13.9341 81.7175 14.88 80.9746 15.6485V15.6522ZM76.1458 15.013C76.7048 15.582 77.3889 15.8664 78.2016 15.8664C79.0144 15.8664 79.6985 15.582 80.2575 15.013C80.8165 14.444 81.0997 13.7161 81.0997 12.8331C81.0997 11.9501 80.8202 11.2222 80.2575 10.6532C79.6985 10.0843 79.0144 9.79978 78.2016 9.79978C77.3889 9.79978 76.7085 10.0843 76.1458 10.6532C75.5868 11.2222 75.3073 11.9501 75.3073 12.8331C75.3073 13.7161 75.5868 14.444 76.1458 15.013Z" fill="white"/>
<path d="M83.4534 16.6351V9.03516H84.6376L88.3153 14.9467H88.3557L88.3153 13.4836V9.03516H89.2862V16.6351H88.2711L84.4243 10.4354H84.3838L84.4243 11.8985V16.6314H83.4534V16.6351Z" fill="white"/>
<path d="M91.0184 16.6351V9.03516H91.9893V16.6351H91.0184Z" fill="white"/>
<path d="M93.7216 16.6351V9.03516H96.4578C97.0499 9.03516 97.5611 9.23097 97.995 9.62261C98.429 10.0142 98.646 10.5093 98.646 11.1042C98.646 11.4663 98.554 11.784 98.3665 12.0611C98.1789 12.3382 97.9325 12.5451 97.6199 12.6892V12.7298C97.9914 12.8555 98.3003 13.0771 98.5393 13.3875C98.7784 13.6978 98.8997 14.0599 98.8997 14.47C98.8997 15.0944 98.6717 15.608 98.2194 16.0181C97.7633 16.4282 97.2301 16.6351 96.6085 16.6351H93.7252H93.7216ZM94.6925 12.2902H96.4578C96.8255 12.2902 97.1197 12.1682 97.3404 11.9244C97.5611 11.6805 97.6714 11.4145 97.6714 11.1227C97.6714 10.8308 97.5647 10.5685 97.3478 10.3283C97.1345 10.0881 96.8513 9.96622 96.4982 9.96622H94.6925V12.2902ZM94.6925 15.7004H96.649C97.0204 15.7004 97.3257 15.5711 97.5574 15.3087C97.7891 15.0464 97.9068 14.7619 97.9068 14.4479C97.9068 14.1338 97.7891 13.853 97.5464 13.5944C97.3073 13.3358 96.9947 13.2065 96.6049 13.2065H94.6925V15.7004Z" fill="white"/>
<path d="M100.209 16.6351V9.03516H101.18V15.7004H104.457V16.6351H100.209Z" fill="white"/>
<path d="M110.098 9.96601H106.652V12.3749H109.76V13.2875H106.652V15.6965H110.098V16.6312H105.681V9.03125H110.098V9.96601Z" fill="white"/>
<path d="M118.572 9.96601H115.126V12.3749H118.233V13.2875H115.126V15.6965H118.572V16.6312H114.155V9.03125H118.572V9.96601Z" fill="white"/>
<path d="M120.091 16.6351V9.03516H121.275L124.952 14.9467H124.993L124.952 13.4836V9.03516H125.923V16.6351H124.908L121.061 10.4354H121.021L121.061 11.8985V16.6314H120.091V16.6351Z" fill="white"/>
</g>
<defs>
<linearGradient id="paint0_linear_10_4633" x1="29.7886" y1="25.5762" x2="41.2629" y2="25.5762" gradientUnits="userSpaceOnUse">
<stop stop-color="#FFDF00"/>
<stop offset="1" stop-color="#FFDF00"/>
</linearGradient>
<linearGradient id="paint1_linear_10_4633" x1="13.9782" y1="34.0297" x2="33.1095" y2="34.0297" gradientUnits="userSpaceOnUse">
<stop stop-color="#E6383C"/>
<stop offset="1" stop-color="#E6383C"/>
</linearGradient>
<linearGradient id="paint2_linear_10_4633" x1="13.9635" y1="17.1339" x2="33.4479" y2="17.1339" gradientUnits="userSpaceOnUse">
<stop stop-color="#7CBB5A"/>
<stop offset="1" stop-color="#7CBB5A"/>
</linearGradient>
<clipPath id="clip0_10_4633">
<rect width="170.203" height="50.6652" fill="white" transform="translate(0.304565 0.167725)"/>
</clipPath>
</defs>
</svg>
